<svg width="28" height="28" viewBox="0 0 28 28" fill="none" xmlns="http://www.w3.org/2000/svg">
<path d="M9.33333 4.08331C9.33333 3.11681 10.1168 2.33331 11.0833 2.33331H16.9167C17.8832 2.33331 18.6667 3.11681 18.6667 4.08331V5.24998C18.6667 6.21648 17.8832 6.99998 16.9167 6.99998H11.0833C10.1168 6.99998 9.33333 6.21648 9.33333 5.24998V4.08331Z" fill="#FE6D00"/>
<path fill-rule="evenodd" clip-rule="evenodd" d="M7.58333 4.70936C6.11578 4.7917 5.18931 5.02556 4.52513 5.68975C3.5 6.71487 3.5 8.36479 3.5 11.6646V18.6646C3.5 21.9645 3.5 23.6144 4.52513 24.6395C5.55025 25.6646 7.20017 25.6646 10.5 25.6646H17.5C20.7998 25.6646 22.4497 25.6646 23.4749 24.6395C24.5 23.6144 24.5 21.9644 24.5 18.6646V11.6646C24.5 8.36479 24.5 6.71487 23.4749 5.68975C22.8107 5.02556 21.8842 4.7917 20.4167 4.70936V5.24998C20.4167 7.18298 18.8497 8.74998 16.9167 8.74998H11.0833C9.15034 8.74998 7.58333 7.18298 7.58333 5.24998V4.70936ZM7.29167 12.25C7.29167 11.7667 7.68342 11.375 8.16667 11.375H19.8333C20.3166 11.375 20.7083 11.7667 20.7083 12.25C20.7083 12.7332 20.3166 13.125 19.8333 13.125H8.16667C7.68342 13.125 7.29167 12.7332 7.29167 12.25ZM8.45833 16.3333C8.45833 15.8501 8.85008 15.4583 9.33333 15.4583H18.6667C19.1499 15.4583 19.5417 15.8501 19.5417 16.3333C19.5417 16.8166 19.1499 17.2083 18.6667 17.2083H9.33333C8.85008 17.2083 8.45833 16.8166 8.45833 16.3333ZM9.625 20.4166C9.625 19.9334 10.0168 19.5416 10.5 19.5416H17.5C17.9832 19.5416 18.375 19.9334 18.375 20.4166C18.375 20.8999 17.9832 21.2916 17.5 21.2916H10.5C10.0168 21.2916 9.625 20.8999 9.625 20.4166Z" fill="#FE6D00"/>
</svg>
